<svg xmlns="http://www.w3.org/2000/svg" xmlns:xlink="http://www.w3.org/1999/xlink" width="500" zoomAndPan="magnify" viewBox="0 0 375 374.999991" height="500" preserveAspectRatio="xMidYMid meet" version="1.2"><defs><clipPath id="b39942c6dd"><path d="M 77.980469 14.144531 L 284.148438 14.144531 L 284.148438 220.3125 L 77.980469 220.3125 Z M 77.980469 14.144531 "/></clipPath><clipPath id="8620255c7b"><path d="M 181.066406 14.144531 C 124.132812 14.144531 77.980469 60.296875 77.980469 117.230469 C 77.980469 174.160156 124.132812 220.3125 181.066406 220.3125 C 237.996094 220.3125 284.148438 174.160156 284.148438 117.230469 C 284.148438 60.296875 237.996094 14.144531 181.066406 14.144531 Z M 181.066406 14.144531 "/></clipPath><clipPath id="653e014a98"><path d="M 115.375 38.425781 L 248.363281 38.425781 L 248.363281 115.667969 L 115.375 115.667969 Z M 115.375 38.425781 "/></clipPath><clipPath id="552d96f11b"><path d="M 115.375 113.472656 L 115.375 81.109375 C 115.375 78.78125 116.59375 76.625 118.589844 75.429688 L 178.601562 39.421875 C 180.578125 38.234375 183.050781 38.234375 185.03125 39.421875 L 245.042969 75.429688 C 247.039062 76.625 248.257812 78.78125 248.257812 81.109375 L 248.257812 113.472656 C 248.257812 114.238281 247.847656 114.945312 247.179688 115.320312 C 246.515625 115.699219 245.699219 115.6875 245.042969 115.292969 L 185.03125 79.289062 C 183.050781 78.101562 180.578125 78.101562 178.601562 79.289062 L 118.589844 115.292969 C 117.933594 115.6875 117.117188 115.699219 116.449219 115.320312 C 115.785156 114.945312 115.375 114.238281 115.375 113.472656 Z M 115.375 113.472656 "/></clipPath><clipPath id="ed63d84e22"><path d="M 112.714844 93 L 250.996094 93 L 250.996094 165.246094 L 112.714844 165.246094 Z M 112.714844 93 "/></clipPath><clipPath id="e77f3f4339"><path d="M 112.714844 158.667969 L 112.714844 141.300781 C 112.714844 134.339844 116.429688 127.90625 122.457031 124.429688 L 172.070312 95.808594 C 178.097656 92.328125 185.527344 92.328125 191.558594 95.808594 L 241.167969 124.429688 C 247.199219 127.90625 250.914062 134.339844 250.914062 141.300781 L 250.914062 158.667969 C 250.914062 160.988281 249.675781 163.132812 247.664062 164.292969 C 245.65625 165.453125 243.179688 165.453125 241.167969 164.292969 L 191.558594 135.671875 C 185.527344 132.195312 178.097656 132.195312 172.070312 135.671875 L 122.457031 164.292969 C 120.449219 165.453125 117.972656 165.453125 115.960938 164.292969 C 113.949219 163.132812 112.714844 160.988281 112.714844 158.667969 Z M 112.714844 158.667969 "/></clipPath><clipPath id="11786c4876"><path d="M 119.472656 149.722656 L 242.597656 149.722656 L 242.597656 182.894531 L 119.472656 182.894531 Z M 119.472656 149.722656 "/></clipPath><clipPath id="52198a05eb"><path d="M 187.722656 151.410156 L 241.605469 179.433594 C 242.355469 179.824219 242.742188 180.675781 242.539062 181.496094 C 242.339844 182.316406 241.605469 182.894531 240.757812 182.894531 L 121.375 182.894531 C 120.53125 182.894531 119.792969 182.316406 119.59375 181.496094 C 119.390625 180.675781 119.777344 179.824219 120.527344 179.433594 L 174.414062 151.410156 C 178.582031 149.238281 183.550781 149.238281 187.722656 151.410156 Z M 187.722656 151.410156 "/></clipPath></defs><g id="a7b480e0ec"><g clip-rule="nonzero" clip-path="url(#b39942c6dd)"><g clip-rule="nonzero" clip-path="url(#8620255c7b)"><path style="fill:none;stroke-width:20;stroke-linecap:butt;stroke-linejoin:miter;stroke:#1848a0;stroke-opacity:1;stroke-miterlimit:4;" d="M 137.445878 -0.00217288 C 61.534415 -0.00217288 -0.00204724 61.534289 -0.00204724 137.445753 C -0.00204724 213.352008 61.534415 274.88847 137.445878 274.88847 C 213.352133 274.88847 274.888596 213.352008 274.888596 137.445753 C 274.888596 61.534289 213.352133 -0.00217288 137.445878 -0.00217288 Z M 137.445878 -0.00217288 " transform="matrix(0.75,0,0,0.75,77.982004,14.146161)"/></g></g><g clip-rule="nonzero" clip-path="url(#653e014a98)"><g clip-rule="nonzero" clip-path="url(#552d96f11b)"><path style=" stroke:none;fill-rule:nonzero;fill:#003d84;fill-opacity:1;" d="M 115.375 117.222656 L 115.375 37.492188 L 248.363281 37.492188 L 248.363281 117.222656 Z M 115.375 117.222656 "/></g></g><g clip-rule="nonzero" clip-path="url(#ed63d84e22)"><g clip-rule="nonzero" clip-path="url(#e77f3f4339)"><path style=" stroke:none;fill-rule:nonzero;fill:#00acf7;fill-opacity:1;" d="M 112.714844 169.917969 L 112.714844 90.183594 L 250.996094 90.183594 L 250.996094 169.917969 Z M 112.714844 169.917969 "/></g></g><g clip-rule="nonzero" clip-path="url(#11786c4876)"><g clip-rule="nonzero" clip-path="url(#52198a05eb)"><path style=" stroke:none;fill-rule:nonzero;fill:#19d5fe;fill-opacity:1;" d="M 113.875 147.949219 L 248.195312 147.949219 L 248.195312 182.894531 L 113.875 182.894531 Z M 113.875 147.949219 "/></g></g><g style="fill:#000000;fill-opacity:1;"><g transform="translate(9.104446, 265.975992)"><path style="stroke:none" d="M 19.515625 -30.1875 C 21.640625 -30.1875 23.609375 -29.972656 25.421875 -29.546875 C 27.234375 -29.128906 29.125 -28.457031 31.09375 -27.53125 C 31.851562 -27.175781 32.34375 -27 32.5625 -27 C 32.800781 -27 33.070312 -27.203125 33.375 -27.609375 L 33.875 -27.328125 L 30.890625 -21.59375 L 30.265625 -21.921875 C 30.347656 -22.171875 30.390625 -22.378906 30.390625 -22.546875 C 30.390625 -22.972656 30.125 -23.4375 29.59375 -23.9375 C 29.0625 -24.445312 28.320312 -24.90625 27.375 -25.3125 C 26.4375 -25.726562 25.332031 -26.070312 24.0625 -26.34375 C 22.800781 -26.613281 21.421875 -26.75 19.921875 -26.75 C 17.953125 -26.75 16.144531 -26.46875 14.5 -25.90625 C 12.851562 -25.351562 11.421875 -24.5625 10.203125 -23.53125 C 8.992188 -22.507812 8.050781 -21.269531 7.375 -19.8125 C 6.707031 -18.351562 6.375 -16.738281 6.375 -14.96875 C 6.375 -13.164062 6.703125 -11.53125 7.359375 -10.0625 C 8.015625 -8.59375 8.921875 -7.335938 10.078125 -6.296875 C 11.242188 -5.265625 12.609375 -4.460938 14.171875 -3.890625 C 15.742188 -3.316406 17.457031 -3.03125 19.3125 -3.03125 C 20.863281 -3.03125 22.347656 -3.234375 23.765625 -3.640625 C 25.179688 -4.046875 26.425781 -4.535156 27.5 -5.109375 C 28.582031 -5.679688 29.453125 -6.273438 30.109375 -6.890625 C 30.765625 -7.503906 31.09375 -8.015625 31.09375 -8.421875 C 31.09375 -8.753906 31.035156 -9.082031 30.921875 -9.40625 L 31.25 -9.65625 L 35.09375 -4.75 L 34.765625 -4.5 C 34.628906 -4.632812 34.476562 -4.734375 34.3125 -4.796875 C 34.15625 -4.867188 33.96875 -4.90625 33.75 -4.90625 C 33.5 -4.90625 33.175781 -4.75 32.78125 -4.4375 C 32.382812 -4.125 31.96875 -3.816406 31.53125 -3.515625 C 30.9375 -3.078125 30.242188 -2.625 29.453125 -2.15625 C 28.660156 -1.695312 27.753906 -1.273438 26.734375 -0.890625 C 25.710938 -0.515625 24.550781 -0.207031 23.25 0.03125 C 21.957031 0.28125 20.492188 0.40625 18.859375 0.40625 C 16.785156 0.40625 14.753906 0.0390625 12.765625 -0.6875 C 10.773438 -1.425781 8.992188 -2.460938 7.421875 -3.796875 C 5.859375 -5.140625 4.597656 -6.75 3.640625 -8.625 C 2.679688 -10.507812 2.203125 -12.597656 2.203125 -14.890625 C 2.203125 -17.179688 2.679688 -19.257812 3.640625 -21.125 C 4.597656 -23 5.875 -24.609375 7.46875 -25.953125 C 9.0625 -27.304688 10.898438 -28.347656 12.984375 -29.078125 C 15.066406 -29.816406 17.242188 -30.1875 19.515625 -30.1875 Z M 19.515625 -30.1875 "/></g></g><g style="fill:#000000;fill-opacity:1;"><g transform="translate(45.472079, 265.975992)"><path style="stroke:none" d="M 12.109375 -29.78125 L 12.109375 -29.28125 C 11.398438 -29.28125 11.046875 -29.007812 11.046875 -28.46875 C 11.046875 -28.332031 11.078125 -28.175781 11.140625 -28 C 11.210938 -27.820312 11.34375 -27.539062 11.53125 -27.15625 L 15.171875 -19.796875 L 20.53125 -8.671875 C 23.445312 -14.617188 25.675781 -19.140625 27.21875 -22.234375 C 28.757812 -25.328125 29.597656 -27.023438 29.734375 -27.328125 C 29.867188 -27.628906 29.976562 -27.875 30.0625 -28.0625 C 30.144531 -28.25 30.1875 -28.410156 30.1875 -28.546875 C 30.1875 -28.765625 30.101562 -28.9375 29.9375 -29.0625 C 29.78125 -29.1875 29.484375 -29.257812 29.046875 -29.28125 L 29.046875 -29.78125 L 37.3125 -29.78125 L 37.3125 -29.28125 C 36.789062 -29.28125 36.453125 -29.21875 36.296875 -29.09375 C 36.148438 -28.976562 36.078125 -28.726562 36.078125 -28.34375 L 36.078125 -1.4375 C 36.078125 -1.050781 36.148438 -0.796875 36.296875 -0.671875 C 36.453125 -0.546875 36.789062 -0.484375 37.3125 -0.484375 L 37.3125 0 L 30.921875 0 L 30.921875 -0.484375 C 31.441406 -0.484375 31.773438 -0.546875 31.921875 -0.671875 C 32.078125 -0.796875 32.15625 -1.050781 32.15625 -1.4375 L 32.15625 -23.96875 L 20.375 -0.40625 L 8.921875 -24.140625 L 8.828125 -24.140625 L 8.828125 -1.46875 C 8.828125 -1.09375 8.894531 -0.832031 9.03125 -0.6875 C 9.175781 -0.550781 9.492188 -0.484375 9.984375 -0.484375 L 9.984375 0 L 3.59375 0 L 3.59375 -0.484375 C 4.164062 -0.484375 4.523438 -0.550781 4.671875 -0.6875 C 4.828125 -0.832031 4.90625 -1.09375 4.90625 -1.46875 L 4.90625 -28.34375 C 4.90625 -28.726562 4.820312 -28.976562 4.65625 -29.09375 C 4.5 -29.21875 4.144531 -29.28125 3.59375 -29.28125 L 3.59375 -29.78125 Z M 12.109375 -29.78125 "/></g></g><g style="fill:#000000;fill-opacity:1;"><g transform="translate(86.380537, 265.975992)"><path style="stroke:none" d="M 8.421875 -29.78125 L 8.421875 -29.28125 C 7.847656 -29.257812 7.453125 -29.191406 7.234375 -29.078125 C 7.015625 -28.972656 6.90625 -28.8125 6.90625 -28.59375 C 6.90625 -28.539062 6.910156 -28.476562 6.921875 -28.40625 C 6.941406 -28.34375 6.972656 -28.226562 7.015625 -28.0625 C 7.054688 -27.894531 7.128906 -27.675781 7.234375 -27.40625 C 7.347656 -27.132812 7.515625 -26.753906 7.734375 -26.265625 L 17.265625 -3.890625 L 26.953125 -26.921875 C 27.222656 -27.566406 27.394531 -27.992188 27.46875 -28.203125 C 27.539062 -28.410156 27.578125 -28.554688 27.578125 -28.640625 C 27.578125 -28.796875 27.453125 -28.925781 27.203125 -29.03125 C 26.953125 -29.144531 26.664062 -29.226562 26.34375 -29.28125 L 26.34375 -29.78125 L 33.25 -29.78125 L 33.25 -29.28125 C 32.957031 -29.257812 32.710938 -29.226562 32.515625 -29.1875 C 32.328125 -29.144531 32.164062 -29.0625 32.03125 -28.9375 C 31.894531 -28.8125 31.769531 -28.644531 31.65625 -28.4375 C 31.550781 -28.238281 31.429688 -27.960938 31.296875 -27.609375 L 20.65625 -2.53125 C 20.46875 -2.125 20.335938 -1.8125 20.265625 -1.59375 C 20.203125 -1.375 20.171875 -1.179688 20.171875 -1.015625 C 20.171875 -0.660156 20.484375 -0.484375 21.109375 -0.484375 L 21.109375 0 L 13.328125 0 L 13.328125 -0.484375 C 13.660156 -0.484375 13.878906 -0.523438 13.984375 -0.609375 C 14.097656 -0.691406 14.15625 -0.800781 14.15625 -0.9375 C 14.15625 -1.101562 14.132812 -1.253906 14.09375 -1.390625 C 14.050781 -1.523438 13.988281 -1.703125 13.90625 -1.921875 L 2.734375 -28.109375 C 2.546875 -28.535156 2.304688 -28.820312 2.015625 -28.96875 C 1.734375 -29.125 1.320312 -29.226562 0.78125 -29.28125 L 0.78125 -29.78125 Z M 8.421875 -29.78125 "/></g></g><g style="fill:#000000;fill-opacity:1;"><g transform="translate(120.457289, 265.975992)"><path style="stroke:none" d=""/></g></g><g style="fill:#000000;fill-opacity:1;"><g transform="translate(136.370693, 265.975992)"><path style="stroke:none" d="M 1.234375 -31.09375 L 1.71875 -31.09375 C 1.769531 -30.707031 1.859375 -30.390625 1.984375 -30.140625 C 2.109375 -29.898438 2.398438 -29.78125 2.859375 -29.78125 L 28.921875 -29.78125 C 29.328125 -29.78125 29.601562 -29.867188 29.75 -30.046875 C 29.90625 -30.222656 30.023438 -30.570312 30.109375 -31.09375 L 30.59375 -31.09375 L 30.59375 -24.875 L 30.109375 -24.875 C 30.054688 -25.332031 29.945312 -25.664062 29.78125 -25.875 C 29.613281 -26.082031 29.34375 -26.1875 28.96875 -26.1875 L 18 -26.1875 L 18 -1.390625 C 18 -1.003906 18.085938 -0.753906 18.265625 -0.640625 C 18.441406 -0.535156 18.789062 -0.484375 19.3125 -0.484375 L 19.3125 0 L 12.515625 0 L 12.515625 -0.484375 C 13.085938 -0.484375 13.445312 -0.550781 13.59375 -0.6875 C 13.75 -0.832031 13.828125 -1.066406 13.828125 -1.390625 L 13.828125 -26.1875 L 2.90625 -26.1875 C 2.4375 -26.1875 2.140625 -26.082031 2.015625 -25.875 C 1.898438 -25.664062 1.800781 -25.332031 1.71875 -24.875 L 1.234375 -24.875 Z M 1.234375 -31.09375 "/></g></g><g style="fill:#000000;fill-opacity:1;"><g transform="translate(168.197476, 265.975992)"><path style="stroke:none" d="M 26.828125 -20.9375 L 26.34375 -20.9375 C 26.257812 -21.351562 26.117188 -21.617188 25.921875 -21.734375 C 25.734375 -21.859375 25.492188 -21.921875 25.203125 -21.921875 L 8.421875 -21.921875 L 8.421875 -14.078125 L 19.59375 -14.078125 C 19.894531 -14.078125 20.144531 -14.128906 20.34375 -14.234375 C 20.550781 -14.347656 20.695312 -14.617188 20.78125 -15.046875 L 21.265625 -15.046875 L 21.265625 -10.0625 L 20.78125 -10.0625 C 20.695312 -10.5 20.550781 -10.769531 20.34375 -10.875 C 20.144531 -10.988281 19.894531 -11.046875 19.59375 -11.046875 L 8.421875 -11.046875 L 8.421875 -3.03125 L 25.53125 -3.03125 C 25.90625 -3.03125 26.179688 -3.097656 26.359375 -3.234375 C 26.535156 -3.367188 26.664062 -3.707031 26.75 -4.25 L 27.25 -4.25 L 27.25 0.984375 L 26.75 0.984375 C 26.664062 0.578125 26.535156 0.3125 26.359375 0.1875 C 26.179688 0.0625 25.90625 0 25.53125 0 L 4.171875 0 L 4.171875 -0.484375 C 4.492188 -0.484375 4.707031 -0.550781 4.8125 -0.6875 C 4.925781 -0.832031 4.984375 -1.09375 4.984375 -1.46875 L 4.984375 -23.484375 C 4.984375 -23.859375 4.925781 -24.113281 4.8125 -24.25 C 4.707031 -24.394531 4.492188 -24.46875 4.171875 -24.46875 L 4.171875 -24.953125 L 25.15625 -24.953125 C 25.457031 -24.953125 25.707031 -25.003906 25.90625 -25.109375 C 26.113281 -25.222656 26.257812 -25.5 26.34375 -25.9375 L 26.828125 -25.9375 Z M 26.828125 -20.9375 "/></g></g><g style="fill:#000000;fill-opacity:1;"><g transform="translate(197.733378, 265.975992)"><path style="stroke:none" d="M 15.21875 -25.359375 C 16.226562 -25.359375 17.175781 -25.28125 18.0625 -25.125 C 18.945312 -24.976562 19.75 -24.800781 20.46875 -24.59375 C 21.195312 -24.394531 21.835938 -24.179688 22.390625 -23.953125 C 22.953125 -23.722656 23.425781 -23.523438 23.8125 -23.359375 C 24.1875 -23.191406 24.535156 -23.019531 24.859375 -22.84375 C 25.191406 -22.664062 25.46875 -22.578125 25.6875 -22.578125 C 25.875 -22.578125 26.050781 -22.664062 26.21875 -22.84375 C 26.382812 -23.019531 26.535156 -23.175781 26.671875 -23.3125 L 27 -23.15625 L 24.296875 -18.328125 L 23.96875 -18.484375 C 24.050781 -18.734375 24.097656 -18.925781 24.109375 -19.0625 C 24.128906 -19.195312 24.140625 -19.304688 24.140625 -19.390625 C 24.140625 -19.578125 23.882812 -19.84375 23.375 -20.1875 C 22.875 -20.53125 22.210938 -20.859375 21.390625 -21.171875 C 20.578125 -21.484375 19.664062 -21.753906 18.65625 -21.984375 C 17.644531 -22.210938 16.632812 -22.328125 15.625 -22.328125 C 14.039062 -22.328125 12.585938 -22.101562 11.265625 -21.65625 C 9.941406 -21.207031 8.800781 -20.550781 7.84375 -19.6875 C 6.894531 -18.832031 6.15625 -17.789062 5.625 -16.5625 C 5.09375 -15.332031 4.828125 -13.941406 4.828125 -12.390625 C 4.828125 -10.921875 5.09375 -9.578125 5.625 -8.359375 C 6.15625 -7.148438 6.90625 -6.125 7.875 -5.28125 C 8.84375 -4.4375 9.976562 -3.78125 11.28125 -3.3125 C 12.59375 -2.851562 14.023438 -2.625 15.578125 -2.625 C 16.347656 -2.625 17.25 -2.742188 18.28125 -2.984375 C 19.320312 -3.234375 20.3125 -3.554688 21.25 -3.953125 C 22.1875 -4.347656 22.984375 -4.796875 23.640625 -5.296875 C 24.296875 -5.796875 24.625 -6.296875 24.625 -6.796875 C 24.625 -7.035156 24.515625 -7.28125 24.296875 -7.53125 L 24.703125 -7.859375 L 28.140625 -3.5625 L 27.734375 -3.3125 C 27.628906 -3.394531 27.492188 -3.476562 27.328125 -3.5625 C 27.160156 -3.644531 27.007812 -3.6875 26.875 -3.6875 C 26.738281 -3.6875 26.515625 -3.582031 26.203125 -3.375 C 25.890625 -3.164062 25.539062 -2.953125 25.15625 -2.734375 C 23.738281 -1.867188 22.238281 -1.128906 20.65625 -0.515625 C 19.070312 0.0976562 17.394531 0.40625 15.625 0.40625 C 13.601562 0.40625 11.726562 0.0976562 10 -0.515625 C 8.269531 -1.128906 6.769531 -2.007812 5.5 -3.15625 C 4.226562 -4.300781 3.222656 -5.675781 2.484375 -7.28125 C 1.753906 -8.882812 1.390625 -10.6875 1.390625 -12.6875 C 1.390625 -14.5625 1.738281 -16.273438 2.4375 -17.828125 C 3.132812 -19.390625 4.101562 -20.726562 5.34375 -21.84375 C 6.582031 -22.957031 8.046875 -23.820312 9.734375 -24.4375 C 11.421875 -25.050781 13.25 -25.359375 15.21875 -25.359375 Z M 15.21875 -25.359375 "/></g></g><g style="fill:#000000;fill-opacity:1;"><g transform="translate(227.269281, 265.975992)"><path style="stroke:none" d="M 9.578125 -24.953125 L 9.578125 -24.46875 C 9.078125 -24.46875 8.757812 -24.394531 8.625 -24.25 C 8.488281 -24.113281 8.421875 -23.859375 8.421875 -23.484375 L 8.421875 -14.3125 L 25.6875 -14.3125 L 25.6875 -23.515625 C 25.6875 -23.867188 25.617188 -24.113281 25.484375 -24.25 C 25.347656 -24.394531 25.035156 -24.46875 24.546875 -24.46875 L 24.546875 -24.953125 L 30.4375 -24.953125 L 30.4375 -24.46875 C 29.882812 -24.46875 29.523438 -24.40625 29.359375 -24.28125 C 29.203125 -24.15625 29.125 -23.898438 29.125 -23.515625 L 29.125 -1.46875 C 29.125 -1.09375 29.195312 -0.832031 29.34375 -0.6875 C 29.5 -0.550781 29.863281 -0.484375 30.4375 -0.484375 L 30.4375 0 L 24.546875 0 L 24.546875 -0.484375 C 25.035156 -0.484375 25.347656 -0.550781 25.484375 -0.6875 C 25.617188 -0.832031 25.6875 -1.09375 25.6875 -1.46875 L 25.6875 -11.296875 L 8.421875 -11.296875 L 8.421875 -1.46875 C 8.421875 -1.09375 8.488281 -0.832031 8.625 -0.6875 C 8.757812 -0.550781 9.078125 -0.484375 9.578125 -0.484375 L 9.578125 0 L 3.6875 0 L 3.6875 -0.484375 C 4.257812 -0.484375 4.617188 -0.550781 4.765625 -0.6875 C 4.910156 -0.832031 4.984375 -1.09375 4.984375 -1.46875 L 4.984375 -23.484375 C 4.984375 -23.859375 4.910156 -24.113281 4.765625 -24.25 C 4.617188 -24.394531 4.257812 -24.46875 3.6875 -24.46875 L 3.6875 -24.953125 Z M 9.578125 -24.953125 "/></g></g><g style="fill:#000000;fill-opacity:1;"><g transform="translate(261.346033, 265.975992)"><path style="stroke:none" d=""/></g></g><g style="fill:#000000;fill-opacity:1;"><g transform="translate(277.259437, 265.975992)"><path style="stroke:none" d="M 9.90625 -29.78125 L 9.90625 -29.28125 C 9.519531 -29.28125 9.257812 -29.21875 9.125 -29.09375 C 8.988281 -28.976562 8.921875 -28.726562 8.921875 -28.34375 L 8.921875 -1.515625 C 8.921875 -1.078125 8.988281 -0.796875 9.125 -0.671875 C 9.257812 -0.546875 9.519531 -0.484375 9.90625 -0.484375 L 9.90625 0 L 3.765625 0 L 3.765625 -0.484375 C 4.148438 -0.484375 4.410156 -0.550781 4.546875 -0.6875 C 4.679688 -0.832031 4.75 -1.09375 4.75 -1.46875 L 4.75 -28.34375 C 4.75 -28.726562 4.679688 -28.976562 4.546875 -29.09375 C 4.410156 -29.21875 4.148438 -29.28125 3.765625 -29.28125 L 3.765625 -29.78125 Z M 9.90625 -29.78125 "/></g></g><g style="fill:#000000;fill-opacity:1;"><g transform="translate(290.88196, 265.975992)"><path style="stroke:none" d="M 10.796875 -24.953125 L 10.796875 -24.46875 C 10.492188 -24.4375 10.296875 -24.382812 10.203125 -24.3125 C 10.109375 -24.25 10.0625 -24.160156 10.0625 -24.046875 C 10.0625 -23.910156 10.195312 -23.671875 10.46875 -23.328125 C 10.738281 -22.992188 11.285156 -22.335938 12.109375 -21.359375 L 20.078125 -11.90625 L 25.765625 -5.078125 L 25.859375 -5.078125 L 25.859375 -23.484375 C 25.859375 -23.859375 25.785156 -24.113281 25.640625 -24.25 C 25.503906 -24.394531 25.222656 -24.46875 24.796875 -24.46875 L 24.796875 -24.953125 L 30.03125 -24.953125 L 30.03125 -24.46875 C 29.59375 -24.46875 29.304688 -24.394531 29.171875 -24.25 C 29.035156 -24.113281 28.96875 -23.859375 28.96875 -23.484375 L 28.96875 -1.4375 C 28.96875 -1.050781 29.035156 -0.796875 29.171875 -0.671875 C 29.304688 -0.546875 29.59375 -0.484375 30.03125 -0.484375 L 30.03125 0 L 24.140625 0 L 24.140625 -0.484375 C 24.578125 -0.515625 24.847656 -0.5625 24.953125 -0.625 C 25.054688 -0.695312 25.109375 -0.789062 25.109375 -0.90625 C 25.109375 -0.976562 25.066406 -1.066406 24.984375 -1.171875 C 24.910156 -1.285156 24.773438 -1.453125 24.578125 -1.671875 L 19.015625 -8.265625 L 8.1875 -21.265625 L 8.09375 -21.265625 L 8.09375 -1.515625 C 8.09375 -1.109375 8.15625 -0.832031 8.28125 -0.6875 C 8.40625 -0.550781 8.671875 -0.484375 9.078125 -0.484375 L 9.078125 0 L 4.015625 0 L 4.015625 -0.484375 C 4.421875 -0.484375 4.679688 -0.550781 4.796875 -0.6875 C 4.921875 -0.832031 4.984375 -1.109375 4.984375 -1.515625 L 4.984375 -23.515625 C 4.984375 -23.867188 4.921875 -24.113281 4.796875 -24.25 C 4.679688 -24.394531 4.421875 -24.46875 4.015625 -24.46875 L 4.015625 -24.953125 Z M 10.796875 -24.953125 "/></g></g><g style="fill:#000000;fill-opacity:1;"><g transform="translate(324.958713, 265.975992)"><path style="stroke:none" d="M 15.21875 -25.359375 C 16.226562 -25.359375 17.175781 -25.28125 18.0625 -25.125 C 18.945312 -24.976562 19.75 -24.800781 20.46875 -24.59375 C 21.195312 -24.394531 21.835938 -24.179688 22.390625 -23.953125 C 22.953125 -23.722656 23.425781 -23.523438 23.8125 -23.359375 C 24.1875 -23.191406 24.535156 -23.019531 24.859375 -22.84375 C 25.191406 -22.664062 25.46875 -22.578125 25.6875 -22.578125 C 25.875 -22.578125 26.050781 -22.664062 26.21875 -22.84375 C 26.382812 -23.019531 26.535156 -23.175781 26.671875 -23.3125 L 27 -23.15625 L 24.296875 -18.328125 L 23.96875 -18.484375 C 24.050781 -18.734375 24.097656 -18.925781 24.109375 -19.0625 C 24.128906 -19.195312 24.140625 -19.304688 24.140625 -19.390625 C 24.140625 -19.578125 23.882812 -19.84375 23.375 -20.1875 C 22.875 -20.53125 22.210938 -20.859375 21.390625 -21.171875 C 20.578125 -21.484375 19.664062 -21.753906 18.65625 -21.984375 C 17.644531 -22.210938 16.632812 -22.328125 15.625 -22.328125 C 14.039062 -22.328125 12.585938 -22.101562 11.265625 -21.65625 C 9.941406 -21.207031 8.800781 -20.550781 7.84375 -19.6875 C 6.894531 -18.832031 6.15625 -17.789062 5.625 -16.5625 C 5.09375 -15.332031 4.828125 -13.941406 4.828125 -12.390625 C 4.828125 -10.921875 5.09375 -9.578125 5.625 -8.359375 C 6.15625 -7.148438 6.90625 -6.125 7.875 -5.28125 C 8.84375 -4.4375 9.976562 -3.78125 11.28125 -3.3125 C 12.59375 -2.851562 14.023438 -2.625 15.578125 -2.625 C 16.347656 -2.625 17.25 -2.742188 18.28125 -2.984375 C 19.320312 -3.234375 20.3125 -3.554688 21.25 -3.953125 C 22.1875 -4.347656 22.984375 -4.796875 23.640625 -5.296875 C 24.296875 -5.796875 24.625 -6.296875 24.625 -6.796875 C 24.625 -7.035156 24.515625 -7.28125 24.296875 -7.53125 L 24.703125 -7.859375 L 28.140625 -3.5625 L 27.734375 -3.3125 C 27.628906 -3.394531 27.492188 -3.476562 27.328125 -3.5625 C 27.160156 -3.644531 27.007812 -3.6875 26.875 -3.6875 C 26.738281 -3.6875 26.515625 -3.582031 26.203125 -3.375 C 25.890625 -3.164062 25.539062 -2.953125 25.15625 -2.734375 C 23.738281 -1.867188 22.238281 -1.128906 20.65625 -0.515625 C 19.070312 0.0976562 17.394531 0.40625 15.625 0.40625 C 13.601562 0.40625 11.726562 0.0976562 10 -0.515625 C 8.269531 -1.128906 6.769531 -2.007812 5.5 -3.15625 C 4.226562 -4.300781 3.222656 -5.675781 2.484375 -7.28125 C 1.753906 -8.882812 1.390625 -10.6875 1.390625 -12.6875 C 1.390625 -14.5625 1.738281 -16.273438 2.4375 -17.828125 C 3.132812 -19.390625 4.101562 -20.726562 5.34375 -21.84375 C 6.582031 -22.957031 8.046875 -23.820312 9.734375 -24.4375 C 11.421875 -25.050781 13.25 -25.359375 15.21875 -25.359375 Z M 15.21875 -25.359375 "/></g></g></g></svg>